<svg width="48" height="48" viewBox="0 0 48 48" fill="none" xmlns="http://www.w3.org/2000/svg">
<path d="M47.1249 23.5467C47.979 30.4745 44.7675 38.0316 39.242 42.5566C30.0174 50.3588 16.0035 49.6472 7.3954 41.2343C-5.58427 28.6468 -0.813562 6.67906 16.5082 1.06118C23.9764 -1.34937 32.7367 0.388396 38.3677 5.85126C36.2531 4.57984 33.9561 3.63883 31.5564 3.06092C28.6483 2.37578 25.6333 2.27042 22.6843 2.75088C14.1089 4.1259 6.98076 10.8212 5.36257 19.3705C3.58132 28.2918 8.13461 37.4906 16.311 41.5056C20.3722 43.5073 24.9764 44.1326 29.4257 43.2868C39.0821 41.487 46.1108 33.2106 47.1295 23.5467H47.1249Z" fill="#EECC3B"/>
<path d="M11.3119 27.4819C8.1908 20.4389 11.0497 11.6744 17.4561 7.51747C22.3241 4.22294 28.8655 3.83636 34.1001 6.48451C44.4283 11.5977 47.0218 25.6272 39.0081 34.0819C34.5418 38.9087 27.022 40.5739 21.134 37.6973C22.8398 38.1156 24.5989 38.2618 26.3486 38.1308C28.0445 37.9964 29.7083 37.5853 31.2765 36.9132C39.1584 33.6155 42.9329 24.1467 39.1829 16.2758C35.6155 8.54418 26.068 5.57049 18.8042 9.78217C12.703 13.2097 9.77361 20.6001 11.3119 27.4788V27.4819Z" fill="#EECC3B"/>
<path d="M32.9544 21.5607C34.2709 24.3547 33.7193 27.8267 31.8001 30.2346C29.0186 33.8364 23.8667 34.7909 19.8861 32.6425C14.0945 29.5133 12.9464 21.5932 17.851 17.1172C20.4671 14.646 24.8835 14.0282 27.8952 15.931C26.9734 15.7323 26.0274 15.6699 25.0875 15.7457C24.1918 15.8229 23.3138 16.0397 22.4852 16.3882C18.8369 17.8601 16.7261 21.9746 17.8912 25.7648C18.4354 27.5406 19.6218 29.0502 21.2191 29.999C22.8164 30.9479 24.71 31.2681 26.5307 30.8972C26.8228 30.8524 27.1334 30.7427 27.4223 30.6717C27.6943 30.5543 28.0188 30.4694 28.28 30.3257C28.4345 30.2408 28.6848 30.1389 28.8332 30.0462L29.3678 29.7203L29.8716 29.3434C32.1895 27.4823 33.2712 24.6111 32.9621 21.5607H32.9544Z" fill="#EECC3B"/>
</svg>
